<svg xmlns="http://www.w3.org/2000/svg" viewBox="0 0 70 70" >
      <style>
                .rotate {
                    animation: rotation 35s infinite linear;
                }
                @keyframes rotation {
                    from {
                        transform: rotate(0deg);
                    }
                    to {
                transform: rotate(-359deg)
                }
            
        </style>
    <g class="rotate" id="Ebene_1" style="transform-origin: center center;">
        <path style="fill:#ae8d0b "
            d="M60.2,35c9.6,9.61,5.7,18.31-7.38,17.82.49,13.09-8.21,16.98-17.82,7.38-9.61,9.6-18.31,5.7-17.82-7.38-13.09.49-16.98-8.21-7.38-17.82C.2,25.39,4.1,16.69,17.18,17.18c-.49-13.09,8.21-16.98,17.82-7.38,9.61-9.6,18.31-5.7,17.82,7.38,13.09-.49,16.98,8.21,7.38,17.82Z" />
    </g>
    <g id="Brief" style="stroke:rgb(230, 250, 220); fill:transparent; stroke-linejoin:round; stroke-width:2px;">
        <rect x="22.5" y="26.86" width="25" height="16.67"
             />
        <polygon points="35 31.02 22.5 43.52 47.5 43.52 35 31.02" />
        <polygon points="35 39.36 47.5 26.86 22.5 26.86 35 39.36"
            style="fill:#ae8d0b" />
    </g>
</svg>