<svg xmlns="http://www.w3.org/2000/svg" viewBox="0 0 70 70">

      <style>
                .rotate {
                    animation: rotation 35s infinite linear;
                }
                @keyframes rotation {
                    from {
                        transform: rotate(0deg);
                    }
                    to {
                transform: rotate(-359deg)
                }
            
        </style>

    <g class="rotate" id="Ebene_1" style="transform-origin: center center;" >
        <path style="fill:#ae8d0b"
            d="M60.2,35c9.6,9.61,5.7,18.31-7.38,17.82.49,13.09-8.21,16.98-17.82,7.38-9.61,9.6-18.31,5.7-17.82-7.38-13.09.49-16.98-8.21-7.38-17.82C.2,25.39,4.1,16.69,17.18,17.18c-.49-13.09,8.21-16.98,17.82-7.38,9.61-9.6,18.31-5.7,17.82,7.38,13.09-.49,16.98,8.21,7.38,17.82Z" />
    </g>
    <g id="Insta">
        <path
            d="M35,24c-2.99,0-3.36.01-4.53.07-1.17.05-1.97.24-2.67.51-.73.28-1.4.71-1.95,1.27-.56.55-.99,1.21-1.27,1.95-.27.7-.46,1.5-.51,2.67-.05,1.18-.07,1.55-.07,4.54s.01,3.36.07,4.53c.05,1.17.24,1.97.51,2.67.28.72.66,1.34,1.27,1.95.61.61,1.22.99,1.95,1.27.7.27,1.5.46,2.67.51,1.17.05,1.55.07,4.54.07s3.36-.01,4.53-.07c1.17-.05,1.97-.24,2.67-.51.73-.28,1.4-.71,1.95-1.27.61-.61.99-1.23,1.27-1.95.27-.7.46-1.5.51-2.67.05-1.17.07-1.55.07-4.53s-.01-3.36-.07-4.54c-.05-1.17-.24-1.97-.51-2.67-.28-.73-.71-1.4-1.27-1.95-.55-.56-1.21-.99-1.95-1.27-.7-.27-1.5-.46-2.67-.51-1.17-.05-1.55-.07-4.54-.07h0ZM34.01,25.98h.99c2.94,0,3.28,0,4.44.06,1.07.05,1.66.23,2.04.38.51.2.88.44,1.27.82s.62.75.82,1.27c.15.39.33.97.38,2.04.05,1.16.06,1.51.06,4.44s-.01,3.28-.06,4.44c-.05,1.07-.23,1.65-.38,2.04-.18.48-.46.91-.82,1.26-.38.38-.75.62-1.27.82-.38.15-.97.33-2.04.38-1.16.05-1.51.06-4.44.06s-3.29-.01-4.45-.06c-1.07-.05-1.65-.23-2.04-.38-.48-.18-.91-.46-1.27-.82-.37-.36-.65-.79-.83-1.27-.15-.39-.33-.97-.38-2.04-.05-1.16-.06-1.51-.06-4.45s.01-3.28.06-4.44c.05-1.07.23-1.66.38-2.04.2-.51.44-.88.82-1.27s.75-.62,1.27-.82c.39-.15.97-.33,2.04-.38,1.01-.05,1.41-.06,3.46-.06h0ZM40.87,27.81c-.73,0-1.32.59-1.32,1.32s.59,1.32,1.32,1.32h0c.73,0,1.32-.59,1.32-1.32s-.59-1.32-1.32-1.32M35,29.35c-3.12-.05-5.69,2.44-5.74,5.56-.05,3.12,2.44,5.69,5.56,5.74.06,0,.12,0,.18,0,3.12-.05,5.61-2.62,5.56-5.74-.05-3.05-2.51-5.51-5.56-5.56M35,31.33c2.03,0,3.67,1.64,3.67,3.67s-1.64,3.67-3.67,3.67h0c-2.03,0-3.67-1.64-3.67-3.67s1.64-3.67,3.67-3.67"
            style="fill:rgb(230, 250, 220);" />
    </g>
</svg>