<svg xmlns="http://www.w3.org/2000/svg" viewBox="0 0 70 70">

      <style>
                .rotate {
                    animation: rotation 35s infinite linear;
                }
                @keyframes rotation {
                    from {
                        transform: rotate(0deg);
                    }
                    to {
                transform: rotate(-359deg)
                }
            
        </style>

    <g class="rotate" id="Ebene_1" style="transform-origin: center center;">
        <path style="fill:#ae8d0b"
            d="M60.2,35c9.6,9.61,5.7,18.31-7.38,17.82.49,13.09-8.21,16.98-17.82,7.38-9.61,9.6-18.31,5.7-17.82-7.38-13.09.49-16.98-8.21-7.38-17.82C.2,25.39,4.1,16.69,17.18,17.18c-.49-13.09,8.21-16.98,17.82-7.38,9.61-9.6,18.31-5.7,17.82,7.38,13.09-.49,16.98,8.21,7.38,17.82Z" />
    </g>
    <g id="LinkedIn" style="fill:rgb(230, 250, 220);">
        <rect x="25.33" y="28.93" width="3.93" height="14.43"  />
        <ellipse cx="27.3" cy="24.96" rx="2.3" ry="2.31"  />
        <path
            d="M45,43.36h-3.93v-7.35c0-4.42-5.25-4.08-5.25,0v7.35h-3.93v-14.43h3.93v2.31c1.83-3.39,9.18-3.64,9.18,3.25v8.86Z"
             />
    </g>
</svg>