<?xml version="1.0" encoding="utf-8"?>
<!-- Generator: Adobe Illustrator 27.7.0, SVG Export Plug-In . SVG Version: 6.00 Build 0)  -->
<svg version="1.1" id="Ebene_1" xmlns="http://www.w3.org/2000/svg" xmlns:xlink="http://www.w3.org/1999/xlink" x="0px" y="0px"
	 viewBox="0 0 100 100">
<style type="text/css">
	.st0{fill:rgb(249, 210, 236);stroke:rgb(255, 115, 3);stroke-width:1.5;stroke-miterlimit:10;}
	.st1{fill:none;stroke:rgb(255, 115, 3);stroke-width:0.75;stroke-miterlimit:10;}
</style>
<g>
	<g>
		<path class="st0" d="M50,50C70,30,75,5,50,5S30,30,50,50z"/>
		<g>
			<path class="st1" d="M50,50C70,30,75,5,50,5S30,30,50,50z"/>
			<path class="st1" d="M50,50C62.5,30,65,5,50,5S37.5,30,50,50z"/>
			<path class="st1" d="M50,50c5-20,5-45,0-45S45,30,50,50z"/>
		</g>
	</g>
	<g>
		<path class="st0" d="M50,50C21.7,51.2,1.2,66.3,19.6,83.2S51.2,78.3,50,50z"/>
		<g>
			<path class="st1" d="M50,50C21.7,51.2,1.2,66.3,19.6,83.2S51.2,78.3,50,50z"/>
			<path class="st1" d="M50,50C27.3,56.3,8.5,73,19.6,83.2S45.7,73.2,50,50z"/>
			<path class="st1" d="M50,50C32.8,61.4,15.9,79.8,19.6,83.2C23.3,86.6,40.2,68.1,50,50z"/>
		</g>
	</g>
	<g>
		<path class="st0" d="M50,50c21.7,18.2,47,21,44.8-3.9S68.2,28.3,50,50z"/>
		<g>
			<path class="st1" d="M50,50c21.7,18.2,47,21,44.8-3.9S68.2,28.3,50,50z"/>
			<path class="st1" d="M50,50c21,10.7,46.1,11,44.8-3.9C93.5,31.1,68.8,35.8,50,50z"/>
			<path class="st1" d="M50,50c20.4,3.2,45.3,1.1,44.8-3.9C94.4,41.1,69.5,43.3,50,50z"/>
		</g>
	</g>
</g>
<g>
	<g>
		<path class="st0" d="M50,50c28.3,1.2,48.8,16.3,30.4,33.2S48.8,78.3,50,50z"/>
		<g>
			<path class="st1" d="M50,50c28.3,1.2,48.8,16.3,30.4,33.2S48.8,78.3,50,50z"/>
			<path class="st1" d="M50,50c22.7,6.3,41.5,23,30.4,33.2S54.3,73.2,50,50z"/>
			<path class="st1" d="M50,50c17.2,11.4,34.1,29.8,30.4,33.2C76.7,86.6,59.8,68.1,50,50z"/>
		</g>
	</g>
	<g>
		<path class="st0" d="M50,50C28.3,68.2,3,71,5.2,46.1S31.8,28.3,50,50z"/>
		<g>
			<path class="st1" d="M50,50C28.3,68.2,3,71,5.2,46.1S31.8,28.3,50,50z"/>
			<path class="st1" d="M50,50C29,60.7,3.9,61,5.2,46.1S31.2,35.8,50,50z"/>
			<path class="st1" d="M50,50c-20.4,3.2-45.3,1.1-44.8-3.9C5.6,41.1,30.5,43.3,50,50z"/>
		</g>
	</g>
	<g>
		<path class="st0" d="M50,50c3.7-28,20.5-47.2,35.7-27.4S78,53.7,50,50z"/>
		<g>
			<path class="st1" d="M50,50c3.7-28,20.5-47.2,35.7-27.4S78,53.7,50,50z"/>
			<path class="st1" d="M50,50c8.3-22.1,26.6-39.3,35.7-27.4S73.5,47.7,50,50z"/>
			<path class="st1" d="M50,50c12.8-16.1,32.7-31.4,35.7-27.4S68.9,41.8,50,50z"/>
		</g>
	</g>
</g>
</svg>
