<svg viewBox="0 0 1000 1000" xmlns="http://www.w3.org/2000/svg" class="rotate" >
      <style>
                .rotate {
                    animation: rotation 155s infinite linear;
                }
                @keyframes rotation {
                    from {
                        transform: rotate(0deg);
                    }
                    to {
                transform: rotate(-359deg)
                }
            }
        </style>
     <g id="shell" transform="translate(500, 500)"><path d="M 0 0 C -757 -571, 61 -267, 0 0 Z" transform="rotate(0)" stroke="red" fill="red" fill-opacity="0.2"/><path d="M 0 0 C -757 -571, 61 -267, 0 0 Z" transform="rotate(14.4)" stroke="red" fill="red" fill-opacity="0.2"/><path d="M 0 0 C -757 -571, 61 -267, 0 0 Z" transform="rotate(28.8)" stroke="red" fill="red" fill-opacity="0.2"/><path d="M 0 0 C -757 -571, 61 -267, 0 0 Z" transform="rotate(43.2)" stroke="red" fill="red" fill-opacity="0.2"/><path d="M 0 0 C -757 -571, 61 -267, 0 0 Z" transform="rotate(57.6)" stroke="red" fill="red" fill-opacity="0.2"/><path d="M 0 0 C -757 -571, 61 -267, 0 0 Z" transform="rotate(72)" stroke="red" fill="red" fill-opacity="0.2"/><path d="M 0 0 C -757 -571, 61 -267, 0 0 Z" transform="rotate(86.4)" stroke="red" fill="red" fill-opacity="0.2"/><path d="M 0 0 C -757 -571, 61 -267, 0 0 Z" transform="rotate(100.8)" stroke="red" fill="red" fill-opacity="0.2"/><path d="M 0 0 C -757 -571, 61 -267, 0 0 Z" transform="rotate(115.2)" stroke="red" fill="red" fill-opacity="0.2"/><path d="M 0 0 C -757 -571, 61 -267, 0 0 Z" transform="rotate(129.6)" stroke="red" fill="red" fill-opacity="0.2"/><path d="M 0 0 C -757 -571, 61 -267, 0 0 Z" transform="rotate(144)" stroke="red" fill="red" fill-opacity="0.2"/><path d="M 0 0 C -757 -571, 61 -267, 0 0 Z" transform="rotate(158.4)" stroke="red" fill="red" fill-opacity="0.2"/><path d="M 0 0 C -757 -571, 61 -267, 0 0 Z" transform="rotate(172.8)" stroke="red" fill="red" fill-opacity="0.2"/><path d="M 0 0 C -757 -571, 61 -267, 0 0 Z" transform="rotate(187.20000000000002)" stroke="red" fill="red" fill-opacity="0.2"/><path d="M 0 0 C -757 -571, 61 -267, 0 0 Z" transform="rotate(201.6)" stroke="red" fill="red" fill-opacity="0.2"/><path d="M 0 0 C -757 -571, 61 -267, 0 0 Z" transform="rotate(216)" stroke="red" fill="red" fill-opacity="0.2"/><path d="M 0 0 C -757 -571, 61 -267, 0 0 Z" transform="rotate(230.4)" stroke="red" fill="red" fill-opacity="0.2"/><path d="M 0 0 C -757 -571, 61 -267, 0 0 Z" transform="rotate(244.8)" stroke="red" fill="red" fill-opacity="0.2"/><path d="M 0 0 C -757 -571, 61 -267, 0 0 Z" transform="rotate(259.2)" stroke="red" fill="red" fill-opacity="0.2"/><path d="M 0 0 C -757 -571, 61 -267, 0 0 Z" transform="rotate(273.6)" stroke="red" fill="red" fill-opacity="0.2"/><path d="M 0 0 C -757 -571, 61 -267, 0 0 Z" transform="rotate(288)" stroke="red" fill="red" fill-opacity="0.2"/><path d="M 0 0 C -757 -571, 61 -267, 0 0 Z" transform="rotate(302.40000000000003)" stroke="red" fill="red" fill-opacity="0.2"/><path d="M 0 0 C -757 -571, 61 -267, 0 0 Z" transform="rotate(316.8)" stroke="red" fill="red" fill-opacity="0.2"/><path d="M 0 0 C -757 -571, 61 -267, 0 0 Z" transform="rotate(331.2)" stroke="red" fill="red" fill-opacity="0.2"/><path d="M 0 0 C -757 -571, 61 -267, 0 0 Z" transform="rotate(345.6)" stroke="red" fill="red" fill-opacity="0.2"/></g>
    </svg>